<svg width="46" height="40" viewBox="0 0 46 40" fill="none" xmlns="http://www.w3.org/2000/svg">
<path fill-rule="evenodd" clip-rule="evenodd" d="M19.9442 39.9412C8.94474 39.9412 0.00317383 30.9995 0.00317383 20C0.00317383 9.00057 8.94474 0.0588989 19.9442 0.0588989C25.4814 0.0588989 30.6444 2.2663 34.4605 6.30684C34.6535 6.52438 34.6322 6.76802 34.5088 6.94512L35.6792 8.47488C35.9023 8.36123 36.1923 8.38468 36.3688 8.66376C38.6884 11.9935 39.8856 15.9219 39.8856 19.9999C39.8854 30.9995 30.9438 39.9412 19.9442 39.9412ZM19.9442 35.8258C11.227 35.8258 4.11853 28.7173 4.11853 20C4.11853 11.2828 11.227 4.17425 19.9442 4.17425C24.097 4.17425 28.0255 5.78295 30.9811 8.66387C31.2187 8.89838 31.1817 9.17821 31.0271 9.36646L32.5087 11.2053C32.7348 11.0731 33.0472 11.0858 33.2258 11.3576C39.9518 21.5929 32.6524 35.8258 19.9442 35.8258Z" fill="#545454"/>
<path fill-rule="evenodd" clip-rule="evenodd" d="M20.4681 30.2512C20.2436 30.2512 20.0565 30.1015 19.9817 29.9145C19.9444 29.8397 16.7268 21.5339 11.7508 18.3912C10.7781 17.7926 10.03 17.1566 10.3292 15.7348C10.6284 14.3506 11.5638 13.5649 13.2474 13.1907C16.2403 12.5547 19.4578 17.1939 20.6551 19.1021C24.8453 13.0038 33.2258 3.42593 45.4225 2.30355C46.0109 2.23458 46.2284 3.10674 45.6844 3.35112C45.4973 3.42593 28.0627 11.3951 20.9917 29.9519C20.8796 30.1389 20.6925 30.2512 20.4681 30.2512Z" fill="#00B42C"/>
</svg>
